<svg id="Group_1120" data-name="Group 1120" xmlns="http://www.w3.org/2000/svg" width="74.768" height="60" viewBox="0 0 74.768 60">
  <g id="Group_447" data-name="Group 447" transform="translate(0 37.886)">
    <path id="Path_735" data-name="Path 735" d="M16.245,190.687c-.091-.159-.181-.295-.227-.385a1.019,1.019,0,0,1-.068-.408,1.523,1.523,0,0,1,.091-.544l2.628-9.335a1.794,1.794,0,0,1,.363-.725,1.952,1.952,0,0,1,.566-.43.348.348,0,0,1,.136-.091.734.734,0,0,0,.2-.181.815.815,0,0,0,.181-.272.784.784,0,0,0,.068-.272.444.444,0,0,0-.249-.385,1.4,1.4,0,0,0-.7-.159h-5.03a2.941,2.941,0,0,0-.906.113.627.627,0,0,0-.385.408,1.9,1.9,0,0,0-.045.227.457.457,0,0,0,.068.249.814.814,0,0,0,.159.227,2.144,2.144,0,0,1,.2.385,1.1,1.1,0,0,1,.068.408,1.523,1.523,0,0,1-.091.544l-1,3.557H8.519l1-3.557a1.794,1.794,0,0,1,.363-.725,1.953,1.953,0,0,1,.566-.43.349.349,0,0,1,.136-.091.733.733,0,0,0,.2-.181.815.815,0,0,0,.181-.272.783.783,0,0,0,.068-.272.444.444,0,0,0-.249-.385,1.4,1.4,0,0,0-.7-.159H5.075a2.941,2.941,0,0,0-.906.113.627.627,0,0,0-.385.408,1.9,1.9,0,0,0-.045.227.457.457,0,0,0,.068.249.814.814,0,0,0,.159.227,2.144,2.144,0,0,1,.2.385,1.1,1.1,0,0,1,.068.408,1.523,1.523,0,0,1-.091.544L1.518,189.35a2.034,2.034,0,0,1-.363.77,1.988,1.988,0,0,1-.566.453c-.091.068-.2.136-.295.2a.736.736,0,0,0-.227.295.683.683,0,0,0-.068.272.451.451,0,0,0,.249.408,1.4,1.4,0,0,0,.7.159h5.03a2.941,2.941,0,0,0,.906-.113.646.646,0,0,0,.408-.43,1.9,1.9,0,0,0,.045-.227.5.5,0,0,0-.091-.295c-.068-.091-.113-.159-.113-.159-.091-.159-.181-.295-.227-.385a1.019,1.019,0,0,1-.068-.408,1.523,1.523,0,0,1,.091-.544l1.02-3.625h3.784l-1.02,3.625a2.034,2.034,0,0,1-.363.77,1.988,1.988,0,0,1-.566.453c-.091.068-.2.136-.295.2a.736.736,0,0,0-.227.295.683.683,0,0,0-.068.272.451.451,0,0,0,.249.408,1.4,1.4,0,0,0,.7.159h5.03a2.941,2.941,0,0,0,.906-.113.646.646,0,0,0,.408-.43,1.9,1.9,0,0,0,.045-.227.5.5,0,0,0-.091-.295C16.291,190.755,16.268,190.687,16.245,190.687Z" transform="translate(0 -173.558)" fill="#eb2227"/>
    <path id="Path_736" data-name="Path 736" d="M89.2,198.647c-.045,0-.113.068-.249.227a.518.518,0,0,1-.43.227q-.272,0-.272-.34a.5.5,0,0,1,.023-.2l.861-2.923a6.328,6.328,0,0,0,.249-1.586,3,3,0,0,0-1.473-2.742,7.3,7.3,0,0,0-3.9-.906,7.216,7.216,0,0,0-3.625.7,2.049,2.049,0,0,0-1.178,1.767A1.387,1.387,0,0,0,79.8,194a2.636,2.636,0,0,0,1.631.453,2.372,2.372,0,0,0,1.7-.566,1.872,1.872,0,0,0,.589-1.359,1.846,1.846,0,0,0-.136-.7,1.618,1.618,0,0,1,.974.249,1.027,1.027,0,0,1,.34.77,5.164,5.164,0,0,1-.272,1.382l-.521,1.4a11.308,11.308,0,0,0-3.467-.544,4.766,4.766,0,0,0-2.7.748,3.472,3.472,0,0,0-1.473,2.2,3.076,3.076,0,0,0-.068.657,2.9,2.9,0,0,0,1.5,2.583,3.667,3.667,0,0,0,1.881.431,4.285,4.285,0,0,0,1.858-.408,4.507,4.507,0,0,0,1.518-1.178A2.131,2.131,0,0,0,84.24,201.3a4.042,4.042,0,0,0,1.881.408,3.708,3.708,0,0,0,2.9-1.359,1.809,1.809,0,0,0,.43-1.178.757.757,0,0,0-.068-.34C89.315,198.693,89.269,198.647,89.2,198.647Zm-6.027-.544a1.246,1.246,0,0,1-.476.68,1.079,1.079,0,0,1-.612.227.54.54,0,0,1-.453-.2.819.819,0,0,1-.159-.544,1.548,1.548,0,0,1,.363-1,1.215,1.215,0,0,1,.974-.453,4.57,4.57,0,0,1,.816.068Z" transform="translate(-58.507 -183.535)" fill="#eb2227"/>
    <path id="Path_737" data-name="Path 737" d="M146.375,188.473a.239.239,0,0,0-.227-.091,1.832,1.832,0,0,0-.453.068,7.452,7.452,0,0,1-.861.091.911.911,0,0,1-.589-.159.612.612,0,0,1-.2-.544,2.1,2.1,0,0,1,.113-.657l1.745-6.118h1.246a1.209,1.209,0,0,0,1.269-.929c.023-.136.045-.249.045-.295a.542.542,0,0,0-.227-.476,1.055,1.055,0,0,0-.634-.181h-1.133l.295-.974a2.462,2.462,0,0,0,.091-.589c0-.68-.453-1.02-1.337-1.02a3.57,3.57,0,0,0-1.518.272,5.336,5.336,0,0,0-1.291.974l-1.337,1.337h-1.2a1.809,1.809,0,0,0-.884.159.755.755,0,0,0-.363.43.572.572,0,0,0,.068.476,2.7,2.7,0,0,0,.453.5,2.79,2.79,0,0,1,.566.612,1.243,1.243,0,0,1,.2.725,2.245,2.245,0,0,1-.113.566l-1.518,5.075a3.014,3.014,0,0,0-.181,1.02,2.153,2.153,0,0,0,.884,1.813,3.827,3.827,0,0,0,2.311.657,6.533,6.533,0,0,0,2.447-.43,5.694,5.694,0,0,0,1.767-1.042,1.607,1.607,0,0,0,.634-1.042A.383.383,0,0,0,146.375,188.473Z" transform="translate(-106.038 -172.861)" fill="#eb2227"/>
    <path id="Path_738" data-name="Path 738" d="M179.963,177.116a1.8,1.8,0,0,1-.295-.295.806.806,0,0,1-.113-.43,1.674,1.674,0,0,1,.068-.431l3.308-13.277a2.99,2.99,0,0,0,.136-.884,1.517,1.517,0,0,0-.566-1.246,2.9,2.9,0,0,0-1.767-.453,8.146,8.146,0,0,0-2.47.363c-.793.227-1.224.521-1.291.816a.429.429,0,0,0,.023.34,1.786,1.786,0,0,0,.295.295,1.8,1.8,0,0,1,.295.295.627.627,0,0,1,.113.363,1,1,0,0,1-.068.317l-3.172,13.051a1.549,1.549,0,0,1-.363.725,1.834,1.834,0,0,1-.521.385.791.791,0,0,0-.43.43.43.43,0,0,0,.159.476,1.409,1.409,0,0,0,.793.181h4.713a3.172,3.172,0,0,0,.952-.113.687.687,0,0,0,.408-.385.25.25,0,0,0-.023-.227A.7.7,0,0,0,179.963,177.116Z" transform="translate(-132.646 -160.1)" fill="#eb2227"/>
    <path id="Path_739" data-name="Path 739" d="M219.66,197.713a3.338,3.338,0,0,0-.816.2c-.476.159-.884.272-1.178.34a4.584,4.584,0,0,1-.974.113,2.933,2.933,0,0,1-1.722-.453,1.718,1.718,0,0,1-.589-1.541,12.142,12.142,0,0,0,1.858.136,8.788,8.788,0,0,0,3.421-.612,2.736,2.736,0,0,0,1.767-1.994,3.752,3.752,0,0,0,.091-.748,2.623,2.623,0,0,0-1.2-2.2,6.938,6.938,0,0,0-3.9-.861,7.185,7.185,0,0,0-4.35,1.314,6.115,6.115,0,0,0-2.311,3.942,7.644,7.644,0,0,0-.159,1.5,4.166,4.166,0,0,0,1.5,3.467,6.008,6.008,0,0,0,3.852,1.178,5.881,5.881,0,0,0,2.719-.566,4.6,4.6,0,0,0,1.7-1.382,2.521,2.521,0,0,0,.544-1.563C219.887,197.8,219.8,197.713,219.66,197.713Zm-4.622-4.35a3.775,3.775,0,0,1,.634-1.11c.2-.249.385-.363.544-.363.2,0,.317.2.34.589a3.352,3.352,0,0,1-.453,1.835,1.517,1.517,0,0,1-1.359.838.631.631,0,0,1-.227-.023A9.7,9.7,0,0,1,215.038,193.363Z" transform="translate(-160.542 -183.303)" fill="#eb2227"/>
    <path id="Path_740" data-name="Path 740" d="M269.842,191.07a1.805,1.805,0,0,0-1.5-.748,1.879,1.879,0,0,0-1.223.43,2.473,2.473,0,0,0-.793,1.292,3.933,3.933,0,0,0-.181,1.2,3.764,3.764,0,0,0,.34,1.586,3.9,3.9,0,0,0,.974,1.314,8.311,8.311,0,0,1-1,1.971q-.51.68-.884.68c-.2,0-.34-.181-.385-.521l-.634-4.667a5.022,5.022,0,0,0-.838-2.492,2.425,2.425,0,0,0-2.016-.816,3.714,3.714,0,0,0-2.424.838,4.213,4.213,0,0,0-1.427,2.039,2.207,2.207,0,0,0-.113.634c0,.249.045.363.181.363a.611.611,0,0,0,.295-.159.738.738,0,0,1,.34-.159.367.367,0,0,1,.317.159,1.645,1.645,0,0,1,.181.566l.861,5.211a3.291,3.291,0,0,0,.7,1.7,2.736,2.736,0,0,0,1.609.725,3.938,3.938,0,0,1-2.515,1.178,3.423,3.423,0,0,0-.793-1.835,2.072,2.072,0,0,0-1.609-.68,1.848,1.848,0,0,0-1.065.317,1.662,1.662,0,0,0-.634.906,2.818,2.818,0,0,0-.113.7,2.506,2.506,0,0,0,.408,1.359,2.815,2.815,0,0,0,1.2,1.02,4.382,4.382,0,0,0,1.9.385,8.387,8.387,0,0,0,4.464-1.4,14.62,14.62,0,0,0,3.965-3.716,15.686,15.686,0,0,0,2.515-4.939,8.11,8.11,0,0,0,.408-2.424A3.161,3.161,0,0,0,269.842,191.07Z" transform="translate(-195.602 -183.457)" fill="#eb2227"/>
  </g>
  <g id="Group_451" data-name="Group 451" transform="translate(15.577)">
    <g id="Group_448" data-name="Group 448" transform="translate(0 6.548)">
      <path id="Path_741" data-name="Path 741" d="M85.3,41.9h4.577a1.2,1.2,0,1,0,0-2.4H85.3a1.209,1.209,0,0,0-1.2,1.2A1.194,1.194,0,0,0,85.3,41.9Z" transform="translate(-79.704 -37.098)" fill="#ffc614"/>
      <path id="Path_742" data-name="Path 742" d="M84.548,28.9l-.43,2.447H79.9a1.2,1.2,0,0,0,0,2.4h4.486a1.21,1.21,0,0,1,.748.34,1.164,1.164,0,0,1,.34.838,1.2,1.2,0,0,1-1.178,1.2H70.138a1.224,1.224,0,0,0,0,2.447H85a1.326,1.326,0,0,1,.612.317,1.164,1.164,0,0,1,.34.838,1.209,1.209,0,0,1-1.2,1.2H82.4v.023H75.19a1.2,1.2,0,1,0,0,2.4h6.775v.023h1.314a1.18,1.18,0,0,1,.838.34,1.164,1.164,0,0,1,.34.838,1.209,1.209,0,0,1-1.2,1.2H71.112a1.2,1.2,0,1,0,0,2.4h16.54a1.18,1.18,0,0,1,.838.34,1.164,1.164,0,0,1,.34.838,1.209,1.209,0,0,1-1.2,1.2H65.9a1.2,1.2,0,1,0,0,2.4H80.832a1.69,1.69,0,0,0,1.337.589H98.075a2.533,2.533,0,0,0,2.4-2.039l4.056-22.544H84.548Z" transform="translate(-64.7 -28.9)" fill="#ffc614"/>
    </g>
    <g id="Group_449" data-name="Group 449" transform="translate(15.091)">
      <path id="Path_743" data-name="Path 743" d="M151.581,5.846l.113-.657A4.2,4.2,0,0,0,147.48,0a6.443,6.443,0,0,0-6.095,5.166l-.113.657h-5.755l-1,5.528h1.4l.748-4.124h4.35l-.816,4.509h-.363l-.159.884h2.084l.159-.884h-.317l.816-4.509h7.568l-.861,4.509h-.317l-.159.884h2.085l.159-.884h-.363l.816-4.509h3.9L151.309,29.07a1.666,1.666,0,0,1-1.586,1.337H133.817a1.072,1.072,0,0,1-1.088-1.337l.181-.952h-1.382l-.181.952a2.231,2.231,0,0,0,2.243,2.742H149.5a3.421,3.421,0,0,0,3.217-2.742l4.192-23.247h-5.325Zm-8.95,0,.113-.657A4.749,4.749,0,0,1,147.208,1.4a3.087,3.087,0,0,1,3.1,3.784l-.113.657Z" transform="translate(-131.303)" fill="#eb2227"/>
      <path id="Path_744" data-name="Path 744" d="M139.635,81.8h-1.4l-.43,2.424h1.4Z" transform="translate(-136.328 -63.266)" fill="#eb2227"/>
      <path id="Path_745" data-name="Path 745" d="M135.835,103h-1.4l-.43,2.4h1.4Z" transform="translate(-133.389 -79.663)" fill="#eb2227"/>
    </g>
    <g id="Group_450" data-name="Group 450" transform="translate(23.405 14.523)">
      <path id="Path_746" data-name="Path 746" d="M176.253,67.578a.562.562,0,0,0-.77,0l-7.205,7.205a.561.561,0,0,0,0,.77.547.547,0,0,0,.77,0l7.205-7.205A.521.521,0,0,0,176.253,67.578Z" transform="translate(-168.097 -66.672)" fill="#fff"/>
      <path id="Path_747" data-name="Path 747" d="M169.994,68.088A1.994,1.994,0,1,0,168,66.094,2,2,0,0,0,169.994,68.088Zm0-2.923a.906.906,0,1,1-.906.906A.909.909,0,0,1,169.994,65.165Z" transform="translate(-168 -64.1)" fill="#fff"/>
      <path id="Path_748" data-name="Path 748" d="M189.294,89.7a1.994,1.994,0,1,0,1.994,1.994A2,2,0,0,0,189.294,89.7Zm0,2.923a.906.906,0,1,1,.906-.906A.909.909,0,0,1,189.294,92.623Z" transform="translate(-182.927 -83.9)" fill="#fff"/>
    </g>
  </g>
</svg>
